<svg xmlns="http://www.w3.org/2000/svg" viewBox="0 0 64 64" fill="#fff">
  <path
    d="M21.97919,47.00367c-2.704-5.01293-9.0846-3.82125-11.46491,1.11451A15.189,15.189,0,0,1,4.49055,54.975a1.00794,1.00794,0,0,0,.22089,1.82717c6.231,1.86654,15.00051,1.38552,17.589-5.43135A5.40731,5.40731,0,0,0,21.97919,47.00367Z" />
  <path
    d="M23.77628,35.70934c-1.93759,2.25886-3.65436,4.38721-5.06995,6.29473a7.984,7.984,0,0,1,5.68235,5.73251c1.91749-1.41558,4.05589-3.14233,6.31476-5.1C29.64765,41.57944,24.72347,36.65756,23.77628,35.70934Z" />
  <path
    d="M59.68721,6.72556c-3.57751-3.48727-20.99671,13.4849-26.233,18.62288-2.99166,2.982-5.82279,5.99378-8.35268,8.84494.91637.91035,6.08772,6.09216,7.11792,7.118C36.52544,37.49356,63.169,12.64277,59.68721,6.72556Z" />
</svg>
