<svg xmlns="http://www.w3.org/2000/svg" viewBox="0 0 64 64" fill="#fff">
  <path
    d="M59.12322,23.40228,40.58368,4.86274a3.07206,3.07206,0,0,0-4.2435,0L4.87678,36.32615a3.00445,3.00445,0,0,0,0,4.24252L23.41632,59.10821a2.97969,2.97969,0,0,0,2.12034.87891l.00287.00055h26.462a1.00008,1.00008,0,0,0,0-2.00016H28.78051L59.12322,27.6448A3.00445,3.00445,0,0,0,59.12322,23.40228ZM26.24564,57.694a1.00177,1.00177,0,0,1-1.41515,0L6.29095,39.15449a1.00148,1.00148,0,0,1,0-1.41417L12.92526,31.106l19.954,19.95445Zm31.46341-31.4634L34.29339,49.64628l-19.954-19.95444L37.75436,6.27691a1.00356,1.00356,0,0,1,1.41515,0L57.70905,24.81645A1.00149,1.00149,0,0,1,57.70905,26.23063Z" />
</svg>
