<svg xmlns="http://www.w3.org/2000/svg" viewBox="0 0 64 64" fill="#fff">
  <path
    d="M59.907,12.652l-4.56-4.56c-1.871-1.87-4.885-1.958-6.861-0.198L12.415,40.032c-0.213,0.189-0.335,0.461-0.335,0.747v4.929c0,2.938-1.145,5.7-3.235,7.791c-0.004,0.004-6.564,6.808-6.564,6.808c-0.278,0.289-0.357,0.716-0.2,1.085C2.236,61.76,2.599,62,3,62h8c0.249,0,0.49-0.093,0.674-0.261c0,0,2.832-2.588,2.841-2.597c2.077-2.078,4.84-3.222,7.778-3.222h4.929c0.285,0,0.557-0.122,0.747-0.335l32.137-36.072C61.866,17.538,61.779,14.524,59.907,12.652z M10.612,60H5.354l4.203-4.359l2.783,2.783L10.612,60z M13.813,57.068l-2.88-2.88c2.036-2.358,3.146-5.335,3.146-8.481v-2.213L24.506,53.92h-2.213C19.155,53.92,16.188,55.023,13.813,57.068z M58.611,18.184l-31.574,35.44L14.377,40.962l35.44-31.574c1.185-1.056,2.994-1.004,4.117,0.119l4.56,4.56C59.616,15.189,59.668,16.998,58.611,18.184z" />
</svg>
