<svg xmlns="http://www.w3.org/2000/svg" viewBox="0 0 64 64" fill="#fff">
  <path
    d="M59.45123,19.66376l-15.13-15.12a2.01,2.01,0,0,0-2.82,0l-6.86,6.86a2.0038,2.0038,0,0,0,0,2.83c.96972.95661,11.89032,11.89984,13.18,13.18.261.25549,1.70257,1.70648,1.94,1.94006a2.01362,2.01362,0,0,0,2.83,0l6.86-6.86005A2.02218,2.02218,0,0,0,59.45123,19.66376Z" />
  <path
    d="M33.23126,15.65375a2.46952,2.46952,0,0,1-.22-.25l-16.5,6.36a.982.982,0,0,0-.59.62l-11.95,36.22c1.60193-1.59937,18.56757-18.56946,20.66-20.6601l1.46-1.46a3.379,3.379,0,1,1,1.41,1.42005c-3.33435,3.33471-18.95526,18.955-22.12994,22.13l36.24-11.96a.982.982,0,0,0,.62-.59l6.36-16.49c-.08-.07-.16-.13995-.24-.22Z" />
</svg>
